<svg width="1380" height="409" viewBox="0 0 1380 409" fill="none" xmlns="http://www.w3.org/2000/svg"><path d="M314.623 325.917h.385v47.946c46.694-14.664 80.875-53.322 90.695-99.837a93.77 93.77 0 0 0 2.877-23.12v-24.747h-.176C405.408 176.968 364.565 138 314.623 138c-51.893 0-93.96 42.067-93.96 93.959 0 51.891 42.067 93.958 93.96 93.958ZM0 279.905c0-51.892 42.067-93.959 93.959-93.959s93.958 42.067 93.958 93.959-42.066 93.959-93.958 93.959C42.067 373.864 0 331.797 0 279.905Z" fill="#fff"/><path d="M0 279.905c0-51.892 42.067-93.959 93.959-93.959s93.958 42.067 93.958 93.959-42.066 93.959-93.958 93.959C42.067 373.864 0 331.797 0 279.905Z" fill="#fff"/><path d="M93.572 285.705H0v-24.747c0-51.678 41.894-93.572 93.572-93.572v118.319Z" fill="#fff"/><path d="M93.572 285.705H0v-20.241C0 207.098 37.888 155.488 93.572 138v147.705Zm448.848 67.663h39.379V191.139h54.631v-34.664H488.621v34.664h53.799v162.229Zm159.733 2.496c42.152 0 71.825-28.841 71.825-70.161 0-41.597-29.673-69.883-71.825-69.883-43.261 0-72.101 29.395-72.101 69.883s28.84 70.161 72.101 70.161Zm0-32.724c-20.798 0-35.219-16.361-35.219-37.437 0-21.353 14.143-37.437 35.219-37.437 19.967 0 34.942 15.252 34.942 37.437 0 22.185-15.53 37.437-34.942 37.437Zm101.976 30.228h36.328V149.264h-36.328v204.104Zm117.98 2.496c35.496 0 52.412-18.303 52.412-42.152 0-26.9-17.193-33.278-46.589-44.093-13.311-4.992-19.966-8.874-19.966-14.421 0-7.21 7.21-9.983 12.756-9.983 9.984 0 22.185 4.437 32.446 14.42l17.748-26.899c-15.529-11.925-30.782-16.916-49.362-16.916-28.008 0-49.084 15.807-49.084 40.21 0 26.345 19.412 36.883 41.874 44.371 17.471 5.823 24.404 8.874 24.404 14.697 0 6.656-5.824 11.093-16.362 11.093-14.975 0-26.622-5.269-37.715-15.53l-17.47 25.236c14.697 12.756 33.277 19.967 54.908 19.967Zm121.551 0c18.3 0 27.18-3.883 35.77-8.597l-9.15-29.118c-6.1 3.05-12.76 4.714-17.19 4.714-8.6 0-11.65-5.546-11.65-17.471v-57.404h36.61v-30.227h-36.61v-47.975l-36.33 3.882v44.093h-16.082v30.227h16.082v62.673c0 30.505 15.25 45.203 38.55 45.203Zm118.34 0c42.15 0 71.82-28.841 71.82-70.161 0-41.597-29.67-69.883-71.82-69.883-43.26 0-72.11 29.395-72.11 69.883s28.85 70.161 72.11 70.161Zm0-32.724c-20.8 0-35.22-16.361-35.22-37.437 0-21.353 14.14-37.437 35.22-37.437 19.96 0 34.94 15.252 34.94 37.437 0 22.185-15.53 37.437-34.94 37.437Zm107.73 85.136h36.89l72.93-190.515h-36.88l-30.79 83.194h-.55l-33-83.194h-38.82l54.35 127.287-24.13 63.228ZM20.362 82h13.656V62.814h7.875c13.489 0 22.286-6.535 22.286-19.772 0-11.897-6.535-20.526-21.197-20.526h-22.62V82Zm13.656-31.417V34.832h6.535c6.283 0 9.132 3.351 9.132 7.875 0 4.943-3.184 7.876-9.383 7.876h-6.284Zm91.262 32.171c17.761 0 30.58-12.316 30.58-30.496 0-18.264-12.819-30.58-30.58-30.58-18.096 0-30.663 12.651-30.663 30.58s12.567 30.496 30.663 30.496Zm0-12.986c-9.383 0-16.002-7.791-16.002-17.51 0-9.718 6.619-17.51 16.002-17.51 9.216 0 15.918 7.624 15.918 17.51 0 9.886-6.702 17.51-15.918 17.51ZM200.732 82h12.819l10.305-39.041h.167L233.909 82h12.819l18.683-59.484h-14.913l-10.054 36.445h-.251l-9.048-36.445h-14.746l-9.132 36.528h-.251l-9.97-36.528h-14.997L200.732 82Zm96.464 0h40.549V69.517h-26.893v-11.06h19.856V46.395h-19.856V34.999h25.134V22.516h-38.79V82Zm74.142 0h13.656V62.814h5.111L402.337 82h16.42l-14.158-21.113c7.372-3.016 11.226-9.215 11.226-17.845 0-11.897-6.535-20.526-21.28-20.526h-23.207V82Zm13.656-31.417V34.832h7.289c6.283 0 9.048 3.351 9.048 7.875 0 4.943-3.267 7.876-9.299 7.876h-7.038ZM450.88 82h40.549V69.517h-26.893v-11.06h19.856V46.395h-19.856V34.999h25.134V22.516h-38.79V82Zm74.142 0h20.861c19.269 0 30.664-12.148 30.664-29.658 0-17.594-12.065-29.826-30.915-29.826h-20.61V82Zm13.656-12.483V34.999h7.289c9.132 0 15.918 7.373 15.918 17.343 0 9.635-6.702 17.175-16.923 17.175h-6.284ZM655.634 82h25.552c13.322 0 19.605-6.954 19.605-16.588 0-7.373-3.603-12.903-12.064-15.08v-.168c6.87-2.681 8.964-8.043 8.964-13.154 0-9.132-6.367-14.494-19.521-14.494h-22.536V82Zm13.656-35.606V34.748h6.87c5.781 0 7.624 2.346 7.624 5.78 0 3.939-2.514 5.866-6.87 5.866h-7.624Zm0 23.458V57.034h9.048c5.194 0 7.959 2.43 7.959 6.45 0 4.19-2.765 6.368-7.456 6.368h-9.551ZM746.305 82h14.243V56.112l19.52-33.596h-16.169l-10.305 19.772h-.168l-10.472-19.772h-16.002l19.353 33.596V82Z" fill="#fff"/></svg>